<mxfile host="app.diagrams.net" modified="2021-03-28T10:28:27.425Z" agent="5.0 (Windows NT 10.0; Win64; x64) AppleWebKit/537.36 (KHTML, like Gecko) Chrome/89.0.4389.90 Safari/537.36" etag="O1W7z0krx3wfTBCzrs_X" version="14.5.1" type="github">
  <diagram id="jlzUHnE8-fUdazIeYC0k" name="第 1 页">
    <mxGraphModel dx="2062" dy="1132" grid="1" gridSize="10" guides="1" tooltips="1" connect="1" arrows="1" fold="1" page="1" pageScale="1" pageWidth="827" pageHeight="1169" math="0" shadow="0">
      <root>
        <mxCell id="0" />
        <mxCell id="1" parent="0" />
        <mxCell id="yTdF7S4Hi9vgwAx5kEvW-1" value="yaml适合以数据为中心的配置文件" style="text;html=1;strokeColor=none;fillColor=none;align=center;verticalAlign=middle;whiteSpace=wrap;rounded=0;" vertex="1" parent="1">
          <mxGeometry x="110" y="110" width="230" height="20" as="geometry" />
        </mxCell>
      </root>
    </mxGraphModel>
  </diagram>
</mxfile>
